<?xml version="1.0" encoding="UTF-8"?>
<!DOCTYPE svg PUBLIC "-//W3C//DTD SVG 1.1//EN" "http://www.w3.org/Graphics/SVG/1.1/DTD/svg11.dtd">
<!-- Creator: CorelDRAW X6 -->
<svg xmlns="http://www.w3.org/2000/svg" xml:space="preserve" width="144.78mm" height="144.78mm" version="1.1" style="shape-rendering:geometricPrecision; text-rendering:geometricPrecision; image-rendering:optimizeQuality; fill-rule:evenodd; clip-rule:evenodd"
viewBox="0 0 14478 14478"
 xmlns:xlink="http://www.w3.org/1999/xlink">
 <defs>
  <style type="text/css">
   <![CDATA[
    .str1 {stroke:#2B2A29;stroke-width:7.62}
    .str0 {stroke:#015BA6;stroke-width:7.62}
    .str2 {stroke:black;stroke-width:0.77}
    .str3 {stroke:#0066FF;stroke-width:0.77}
    .fil3 {fill:none}
    .fil7 {fill:none;fill-rule:nonzero}
    .fil2 {fill:#EBECEC}
    .fil1 {fill:#FEFEFE}
    .fil4 {fill:#0066FF}
    .fil0 {fill:#1A4F9C}
    .fil5 {fill:#FEFEFE;fill-rule:nonzero}
    .fil6 {fill:#015BA6;fill-rule:nonzero}
   ]]>
  </style>
 </defs>
 <g id="Capa_x0020_1">
  <metadata id="CorelCorpID_0Corel-Layer"/>
  <g id="_314459912">
   <circle class="fil0 str0" cx="7210" cy="7253" r="6985"/>
   <ellipse class="fil1 str0" cx="7184" cy="7259" rx="5503" ry="5495"/>
   <circle class="fil2 str1" cx="7210" cy="7253" r="5296"/>
   <line class="fil3 str2" x1="12271" y1="7165" x2="11429" y2= "7178" />
   <line class="fil3 str2" x1="12130" y1="8435" x2="12271" y2= "7165" />
   <line class="fil3 str2" x1="11257" y1="6053" x2="12067" y2= "5815" />
   <line class="fil3 str2" x1="11554" y1="4644" x2="10830" y2= "5077" />
   <line class="fil3 str2" x1="12067" y1="5815" x2="11554" y2= "4644" />
   <line class="fil3 str2" x1="10120" y1="4189" x2="10703" y2= "3578" />
   <line class="fil3 str2" x1="7394" y1="6487" x2="8443" y2= "2153" />
   <line class="fil3 str2" x1="7129" y1="2006" x2="7131" y2= "2181" />
   <line class="fil3 str2" x1="7145" y1="3024" x2="6020" y2= "3195" />
   <polyline class="fil3 str2" points="10830,5077 10506,4609 10120,4189 "/>
   <polyline class="fil3 str2" points="11429,7178 11381,6610 11257,6053 "/>
   <polyline class="fil3 str2" points="10896,9296 11139,8780 11310,8237 "/>
   <polyline class="fil3 str2" points="9376,10864 9844,10539 10264,10154 "/>
   <polyline class="fil3 str2" points="7275,11462 7843,11415 8400,11291 "/>
   <polyline class="fil3 str2" points="5158,10929 5673,11172 6216,11344 "/>
   <polyline class="fil3 str2" points="3590,9410 3914,9877 4300,10298 "/>
   <polyline class="fil3 str2" points="3110,6249 3016,6793 2992,7344 3042,7895 3163,8433 "/>
   <line class="fil3 str2" x1="3525" y1="5190" x2="3110" y2= "6249" />
   <line class="fil3 str2" x1="7357" y1="8007" x2="7570" y2= "7933" />
   <line class="fil3 str2" x1="7814" y1="7734" x2="7929" y2= "7541" />
   <line class="fil3 str2" x1="7988" y1="7231" x2="7952" y2= "7009" />
   <line class="fil3 str2" x1="7798" y1="6733" x2="7628" y2= "6587" />
   <line class="fil3 str2" x1="6483" y1="7520" x2="6593" y2= "7716" />
   <polyline class="fil3 str2" points="9263,3557 8764,3320 8239,3151 7696,3051 7145,3024 "/>
   <line class="fil3 str2" x1="7929" y1="7541" x2="9007" y2= "7988" />
   <line class="fil3 str2" x1="9673" y1="2820" x2="10703" y2= "3578" />
   <line class="fil3 str2" x1="5667" y1="8427" x2="4532" y2= "9298" />
   <line class="fil3 str2" x1="2494" y1="7316" x2="2149" y2= "7322" />
   <line class="fil3 str2" x1="9673" y1="2820" x2="9263" y2= "3557" />
   <polyline class="fil3 str2" points="8402,2323 7835,2219 7259,2180 6683,2208 6114,2300 5559,2457 5025,2676 4520,2955 4050,3288 3620,3674 3237,4105 2907,4577 2631,5084 2416,5619 2262,6176 2173,6745 2149,7322 "/>
   <polyline class="fil3 str2" points="8204,3142 7699,3052 7187,3023 6675,3057 6172,3153 5683,3309 5217,3523 4781,3793 4381,4113 4022,4479 3710,4886 3450,5329 3246,5799 3100,6291 3015,6797 2991,7309 "/>
   <polyline class="fil3 str2" points="7394,6487 7192,6465 6993,6496 6808,6577 6650,6704 6530,6867 6455,7054 6433,7255 "/>
   <line class="fil3 str2" x1="2290" y1="6051" x2="2121" y2= "6010" />
   <line class="fil3 str2" x1="3524" y1="5190" x2="3718" y2= "5298" />
   <line class="fil3 str2" x1="3546" y1="3750" x2="3419" y2= "3630" />
   <line class="fil3 str2" x1="5044" y1="3622" x2="5159" y2= "3813" />
   <line class="fil3 str2" x1="5783" y1="2386" x2="5734" y2= "2218" />
   <line class="fil3 str2" x1="7145" y1="3024" x2="7148" y2= "3246" />
   <polygon class="fil4" points="2991,7309 2149,7322 2494,7316 "/>
   <polygon class="fil3 str3" points="2991,7309 2149,7322 2494,7316 "/>
   <polygon class="fil4" points="3016,6792 2149,7322 2991,7309 "/>
   <polygon class="fil3 str3" points="3016,6792 2149,7322 2991,7309 "/>
   <polygon class="fil4" points="2173,6745 2149,7322 3016,6792 "/>
   <polygon class="fil3 str3" points="2173,6745 2149,7322 3016,6792 "/>
   <polygon class="fil4" points="3102,6282 2173,6745 3016,6792 "/>
   <polygon class="fil3 str3" points="3102,6282 2173,6745 3016,6792 "/>
   <polygon class="fil4" points="2262,6176 2173,6745 3102,6282 "/>
   <polygon class="fil3 str3" points="2262,6176 2173,6745 3102,6282 "/>
   <polygon class="fil4" points="3250,5786 2262,6176 3102,6282 "/>
   <polygon class="fil3 str3" points="3250,5786 2262,6176 3102,6282 "/>
   <polygon class="fil4" points="2416,5619 2262,6176 3250,5786 "/>
   <polygon class="fil3 str3" points="2416,5619 2262,6176 3250,5786 "/>
   <polygon class="fil4" points="3458,5313 2416,5619 3250,5786 "/>
   <polygon class="fil3 str3" points="3458,5313 2416,5619 3250,5786 "/>
   <polygon class="fil4" points="2631,5084 2416,5619 3458,5313 "/>
   <polygon class="fil3 str3" points="2631,5084 2416,5619 3458,5313 "/>
   <polygon class="fil4" points="3722,4868 2631,5084 3458,5313 "/>
   <polygon class="fil3 str3" points="3722,4868 2631,5084 3458,5313 "/>
   <polygon class="fil4" points="2907,4577 2631,5084 3722,4868 "/>
   <polygon class="fil3 str3" points="2907,4577 2631,5084 3722,4868 "/>
   <polygon class="fil4" points="4038,4460 2907,4577 3722,4868 "/>
   <polygon class="fil3 str3" points="4038,4460 2907,4577 3722,4868 "/>
   <polygon class="fil4" points="3237,4105 2907,4577 4038,4460 "/>
   <polygon class="fil3 str3" points="3237,4105 2907,4577 4038,4460 "/>
   <polygon class="fil4" points="4403,4092 3237,4105 4038,4460 "/>
   <polygon class="fil3 str3" points="4403,4092 3237,4105 4038,4460 "/>
   <polygon class="fil4" points="4809,3772 3237,4105 4403,4092 "/>
   <polygon class="fil3 str3" points="4809,3772 3237,4105 4403,4092 "/>
   <polygon class="fil4" points="3620,3674 3237,4105 4809,3772 "/>
   <polygon class="fil3 str3" points="3620,3674 3237,4105 4809,3772 "/>
   <polygon class="fil4" points="5251,3505 3620,3674 4809,3772 "/>
   <polygon class="fil3 str3" points="5251,3505 3620,3674 4809,3772 "/>
   <polygon class="fil4" points="5724,3294 3620,3674 5251,3505 "/>
   <polygon class="fil3 str3" points="5724,3294 3620,3674 5251,3505 "/>
   <polygon class="fil4" points="4050,3288 3620,3674 5724,3294 "/>
   <polygon class="fil3 str3" points="4050,3288 3620,3674 5724,3294 "/>
   <polygon class="fil4" points="6218,3141 4050,3288 5724,3294 "/>
   <polygon class="fil3 str3" points="6218,3141 4050,3288 5724,3294 "/>
   <polygon class="fil4" points="6727,3051 4050,3288 6218,3141 "/>
   <polygon class="fil3 str3" points="6727,3051 4050,3288 6218,3141 "/>
   <polygon class="fil4" points="4520,2955 6727,3051 7243,3023 "/>
   <polygon class="fil3 str3" points="4520,2955 6727,3051 7243,3023 "/>
   <polygon class="fil4" points="4520,2955 4050,3288 6727,3051 "/>
   <polygon class="fil3 str3" points="4520,2955 4050,3288 6727,3051 "/>
   <polygon class="fil4" points="5025,2676 4520,2955 7243,3023 "/>
   <polygon class="fil3 str3" points="5025,2676 4520,2955 7243,3023 "/>
   <polygon class="fil4" points="5025,2676 7243,3023 7759,3060 "/>
   <polygon class="fil3 str3" points="5025,2676 7243,3023 7759,3060 "/>
   <polygon class="fil4" points="5559,2457 5025,2676 7759,3060 "/>
   <polygon class="fil3 str3" points="5559,2457 5025,2676 7759,3060 "/>
   <polygon class="fil4" points="5559,2457 7759,3060 7983,3095 "/>
   <polygon class="fil3 str3" points="5559,2457 7759,3060 7983,3095 "/>
   <polygon class="fil4" points="5559,2457 7983,3095 8204,3142 "/>
   <polygon class="fil3 str3" points="5559,2457 7983,3095 8204,3142 "/>
   <polygon class="fil4" points="8402,2323 5559,2457 8204,3142 "/>
   <polygon class="fil3 str3" points="8402,2323 5559,2457 8204,3142 "/>
   <polygon class="fil4" points="6114,2300 5559,2457 8402,2323 "/>
   <polygon class="fil3 str3" points="6114,2300 5559,2457 8402,2323 "/>
   <polygon class="fil4" points="7835,2219 6114,2300 8402,2323 "/>
   <polygon class="fil3 str3" points="7835,2219 6114,2300 8402,2323 "/>
   <polygon class="fil4" points="6683,2208 6114,2300 7835,2219 "/>
   <polygon class="fil3 str3" points="6683,2208 6114,2300 7835,2219 "/>
   <polygon class="fil4" points="7259,2180 6683,2208 7835,2219 "/>
   <polygon class="fil3 str3" points="7259,2180 6683,2208 7835,2219 "/>
   <polygon class="fil4" points="7275,11462 6018,12164 7289,12305 "/>
   <polygon class="fil3 str3" points="7275,11462 6018,12164 7289,12305 "/>
   <polygon class="fil4" points="6216,11344 7275,11462 7843,11415 "/>
   <polygon class="fil3 str3" points="6216,11344 7275,11462 7843,11415 "/>
   <polygon class="fil4" points="6216,11344 6018,12164 7275,11462 "/>
   <polygon class="fil3 str3" points="6216,11344 6018,12164 7275,11462 "/>
   <polygon class="fil4" points="8400,11291 6216,11344 7843,11415 "/>
   <polygon class="fil3 str3" points="8400,11291 6216,11344 7843,11415 "/>
   <polygon class="fil4" points="8400,11291 8637,12101 9809,11588 "/>
   <polygon class="fil3 str3" points="8400,11291 8637,12101 9809,11588 "/>
   <polygon class="fil4" points="5673,11172 6216,11344 8400,11291 "/>
   <polygon class="fil3 str3" points="5673,11172 6216,11344 8400,11291 "/>
   <polygon class="fil4" points="5158,10929 5673,11172 8400,11291 "/>
   <polygon class="fil3 str3" points="5158,10929 5673,11172 8400,11291 "/>
   <polygon class="fil4" points="3718,10908 4748,11666 5158,10929 "/>
   <polygon class="fil3 str3" points="3718,10908 4748,11666 5158,10929 "/>
   <polygon class="fil4" points="9376,10864 3718,10908 5158,10929 "/>
   <polygon class="fil3 str3" points="9376,10864 3718,10908 5158,10929 "/>
   <polygon class="fil4" points="9376,10864 5158,10929 8400,11291 "/>
   <polygon class="fil3 str3" points="9376,10864 5158,10929 8400,11291 "/>
   <polygon class="fil4" points="9376,10864 8400,11291 9809,11588 "/>
   <polygon class="fil3 str3" points="9376,10864 8400,11291 9809,11588 "/>
   <polygon class="fil4" points="7848,10558 3718,10908 9376,10864 "/>
   <polygon class="fil3 str3" points="7848,10558 3718,10908 9376,10864 "/>
   <polygon class="fil4" points="9844,10539 7848,10558 9376,10864 "/>
   <polygon class="fil3 str3" points="9844,10539 7848,10558 9376,10864 "/>
   <polygon class="fil4" points="6479,10539 3718,10908 7848,10558 "/>
   <polygon class="fil3 str3" points="6479,10539 3718,10908 7848,10558 "/>
   <polygon class="fil4" points="8320,10431 7848,10558 9844,10539 "/>
   <polygon class="fil3 str3" points="8320,10431 7848,10558 9844,10539 "/>
   <polygon class="fil4" points="6011,10399 3718,10908 6479,10539 "/>
   <polygon class="fil3 str3" points="6011,10399 3718,10908 6479,10539 "/>
   <polygon class="fil4" points="4300,10298 3718,10908 6011,10399 "/>
   <polygon class="fil3 str3" points="4300,10298 3718,10908 6011,10399 "/>
   <polygon class="fil4" points="8768,10238 8320,10431 9844,10539 "/>
   <polygon class="fil3 str3" points="8768,10238 8320,10431 9844,10539 "/>
   <polygon class="fil4" points="5568,10193 4300,10298 6011,10399 "/>
   <polygon class="fil3 str3" points="5568,10193 4300,10298 6011,10399 "/>
   <polygon class="fil4" points="10264,10154 8768,10238 9844,10539 "/>
   <polygon class="fil3 str3" points="10264,10154 8768,10238 9844,10539 "/>
   <polygon class="fil4" points="3914,9877 4300,10298 5568,10193 "/>
   <polygon class="fil3 str3" points="3914,9877 4300,10298 5568,10193 "/>
   <polygon class="fil4" points="11632,9706 10264,10154 10875,10736 "/>
   <polygon class="fil3 str3" points="11632,9706 10264,10154 10875,10736 "/>
   <polygon class="fil4" points="3590,9410 3914,9877 5568,10193 "/>
   <polygon class="fil3 str3" points="3590,9410 3914,9877 5568,10193 "/>
   <polygon class="fil4" points="9829,9373 10264,10154 11632,9706 "/>
   <polygon class="fil3 str3" points="9829,9373 10264,10154 11632,9706 "/>
   <polygon class="fil4" points="9829,9373 8768,10238 10264,10154 "/>
   <polygon class="fil3 str3" points="9829,9373 8768,10238 10264,10154 "/>
   <polygon class="fil4" points="4532,9298 3590,9410 5568,10193 "/>
   <polygon class="fil3 str3" points="4532,9298 3590,9410 5568,10193 "/>
   <polygon class="fil4" points="10896,9296 9829,9373 11632,9706 "/>
   <polygon class="fil3 str3" points="10896,9296 9829,9373 11632,9706 "/>
   <polygon class="fil4" points="10110,8972 9829,9373 10896,9296 "/>
   <polygon class="fil3 str3" points="10110,8972 9829,9373 10896,9296 "/>
   <polygon class="fil4" points="4263,8890 3590,9410 4532,9298 "/>
   <polygon class="fil3 str3" points="4263,8890 3590,9410 4532,9298 "/>
   <polygon class="fil4" points="4263,8890 2866,9842 3590,9410 "/>
   <polygon class="fil3 str3" points="4263,8890 2866,9842 3590,9410 "/>
   <polygon class="fil4" points="11139,8780 10110,8972 10896,9296 "/>
   <polygon class="fil3 str3" points="11139,8780 10110,8972 10896,9296 "/>
   <polygon class="fil4" points="2353,8670 2866,9842 4263,8890 "/>
   <polygon class="fil3 str3" points="2353,8670 2866,9842 4263,8890 "/>
   <polygon class="fil4" points="10328,8536 10110,8972 11139,8780 "/>
   <polygon class="fil3 str3" points="10328,8536 10110,8972 11139,8780 "/>
   <polygon class="fil4" points="4057,8447 2353,8670 4263,8890 "/>
   <polygon class="fil3 str3" points="4057,8447 2353,8670 4263,8890 "/>
   <polygon class="fil4" points="3163,8433 2353,8670 4057,8447 "/>
   <polygon class="fil3 str3" points="3163,8433 2353,8670 4057,8447 "/>
   <polygon class="fil4" points="5667,8427 4532,9298 5568,10193 "/>
   <polygon class="fil3 str3" points="5667,8427 4532,9298 5568,10193 "/>
   <polygon class="fil4" points="11310,8237 10328,8536 11139,8780 "/>
   <polygon class="fil3 str3" points="11310,8237 10328,8536 11139,8780 "/>
   <polygon class="fil4" points="7357,8007 6479,10539 7848,10558 "/>
   <polygon class="fil3 str3" points="7357,8007 6479,10539 7848,10558 "/>
   <polygon class="fil4" points="7042,8003 6479,10539 7357,8007 "/>
   <polygon class="fil3 str3" points="7042,8003 6479,10539 7357,8007 "/>
   <polygon class="fil4" points="9007,7988 10328,8536 11310,8237 "/>
   <polygon class="fil3 str3" points="9007,7988 10328,8536 11310,8237 "/>
   <polygon class="fil4" points="7466,7978 7042,8003 7357,8007 "/>
   <polygon class="fil3 str3" points="7466,7978 7042,8003 7357,8007 "/>
   <polygon class="fil4" points="6934,7970 7042,8003 7466,7978 "/>
   <polygon class="fil3 str3" points="6934,7970 7042,8003 7466,7978 "/>
   <polygon class="fil4" points="7570,7933 6934,7970 7466,7978 "/>
   <polygon class="fil3 str3" points="7570,7933 6934,7970 7466,7978 "/>
   <polygon class="fil4" points="7570,7933 8768,10238 9829,9373 "/>
   <polygon class="fil3 str3" points="7570,7933 8768,10238 9829,9373 "/>
   <polygon class="fil4" points="6832,7923 5667,8427 5568,10193 "/>
   <polygon class="fil3 str3" points="6832,7923 5667,8427 5568,10193 "/>
   <polygon class="fil4" points="6832,7923 6934,7970 7570,7933 "/>
   <polygon class="fil3 str3" points="6832,7923 6934,7970 7570,7933 "/>
   <polygon class="fil4" points="3039,7877 3163,8433 4057,8447 "/>
   <polygon class="fil3 str3" points="3039,7877 3163,8433 4057,8447 "/>
   <polygon class="fil4" points="7814,7734 6832,7923 7570,7933 "/>
   <polygon class="fil3 str3" points="7814,7734 6832,7923 7570,7933 "/>
   <polygon class="fil4" points="7814,7734 7570,7933 9829,9373 "/>
   <polygon class="fil3 str3" points="7814,7734 7570,7933 9829,9373 "/>
   <polygon class="fil4" points="6593,7716 6832,7923 7814,7734 "/>
   <polygon class="fil3 str3" points="6593,7716 6832,7923 7814,7734 "/>
   <polygon class="fil4" points="6593,7716 5667,8427 6832,7923 "/>
   <polygon class="fil3 str3" points="6593,7716 5667,8427 6832,7923 "/>
   <polygon class="fil4" points="7864,7665 6593,7716 7814,7734 "/>
   <polygon class="fil3 str3" points="7864,7665 6593,7716 7814,7734 "/>
   <polygon class="fil4" points="6531,7622 6593,7716 7864,7665 "/>
   <polygon class="fil3 str3" points="6531,7622 6593,7716 7864,7665 "/>
   <polygon class="fil4" points="7906,7591 6531,7622 7864,7665 "/>
   <polygon class="fil3 str3" points="7906,7591 6531,7622 7864,7665 "/>
   <polygon class="fil4" points="7918,7566 6531,7622 7906,7591 "/>
   <polygon class="fil3 str3" points="7918,7566 6531,7622 7906,7591 "/>
   <polygon class="fil4" points="7929,7541 6531,7622 7918,7566 "/>
   <polygon class="fil3 str3" points="7929,7541 6531,7622 7918,7566 "/>
   <polygon class="fil4" points="7929,7541 9007,7988 11310,8237 "/>
   <polygon class="fil3 str3" points="7929,7541 9007,7988 11310,8237 "/>
   <polygon class="fil4" points="6483,7520 3039,7877 4057,8447 "/>
   <polygon class="fil3 str3" points="6483,7520 3039,7877 4057,8447 "/>
   <polygon class="fil4" points="6483,7520 6531,7622 7929,7541 "/>
   <polygon class="fil3 str3" points="6483,7520 6531,7622 7929,7541 "/>
   <polygon class="fil4" points="2991,7309 3039,7877 6483,7520 "/>
   <polygon class="fil3 str3" points="2991,7309 3039,7877 6483,7520 "/>
   <polygon class="fil4" points="6433,7255 2991,7309 6483,7520 "/>
   <polygon class="fil3 str3" points="6433,7255 2991,7309 6483,7520 "/>
   <polygon class="fil4" points="6433,7255 6483,7520 7929,7541 "/>
   <polygon class="fil3 str3" points="6433,7255 6483,7520 7929,7541 "/>
   <polygon class="fil4" points="7988,7231 6433,7255 7929,7541 "/>
   <polygon class="fil3 str3" points="7988,7231 6433,7255 7929,7541 "/>
   <polygon class="fil4" points="7988,7231 7929,7541 11310,8237 "/>
   <polygon class="fil3 str3" points="7988,7231 7929,7541 11310,8237 "/>
   <polygon class="fil4" points="7988,7231 11310,8237 12130,8435 "/>
   <polygon class="fil3 str3" points="7988,7231 11310,8237 12130,8435 "/>
   <polygon class="fil4" points="10585,7190 7988,7231 12130,8435 "/>
   <polygon class="fil3 str3" points="10585,7190 7988,7231 12130,8435 "/>
   <polygon class="fil4" points="11429,7178 10585,7190 12130,8435 "/>
   <polygon class="fil3 str3" points="11429,7178 10585,7190 12130,8435 "/>
   <polygon class="fil4" points="12271,7165 11429,7178 12130,8435 "/>
   <polygon class="fil3 str3" points="12271,7165 11429,7178 12130,8435 "/>
   <polygon class="fil4" points="7978,7119 6433,7255 7988,7231 "/>
   <polygon class="fil3 str3" points="7978,7119 6433,7255 7988,7231 "/>
   <polygon class="fil4" points="6455,7054 6433,7255 7978,7119 "/>
   <polygon class="fil3 str3" points="6455,7054 6433,7255 7978,7119 "/>
   <polygon class="fil4" points="7952,7009 6455,7054 7978,7119 "/>
   <polygon class="fil3 str3" points="7952,7009 6455,7054 7978,7119 "/>
   <polygon class="fil4" points="6530,6867 6455,7054 7952,7009 "/>
   <polygon class="fil3 str3" points="6530,6867 6455,7054 7952,7009 "/>
   <polygon class="fil4" points="7798,6733 6530,6867 7952,7009 "/>
   <polygon class="fil3 str3" points="7798,6733 6530,6867 7952,7009 "/>
   <polygon class="fil4" points="10542,6704 10585,7190 11429,7178 "/>
   <polygon class="fil3 str3" points="10542,6704 10585,7190 11429,7178 "/>
   <polygon class="fil4" points="6650,6704 6530,6867 7798,6733 "/>
   <polygon class="fil3 str3" points="6650,6704 6530,6867 7798,6733 "/>
   <polygon class="fil4" points="7719,6654 6650,6704 7798,6733 "/>
   <polygon class="fil3 str3" points="7719,6654 6650,6704 7798,6733 "/>
   <polygon class="fil4" points="11381,6610 10542,6704 11429,7178 "/>
   <polygon class="fil3 str3" points="11381,6610 10542,6704 11429,7178 "/>
   <polygon class="fil4" points="7628,6587 6650,6704 7719,6654 "/>
   <polygon class="fil3 str3" points="7628,6587 6650,6704 7719,6654 "/>
   <polygon class="fil4" points="6808,6577 6650,6704 7628,6587 "/>
   <polygon class="fil3 str3" points="6808,6577 6650,6704 7628,6587 "/>
   <polygon class="fil4" points="6993,6496 6808,6577 7628,6587 "/>
   <polygon class="fil3 str3" points="6993,6496 6808,6577 7628,6587 "/>
   <polygon class="fil4" points="7394,6487 6993,6496 7628,6587 "/>
   <polygon class="fil3 str3" points="7394,6487 6993,6496 7628,6587 "/>
   <polygon class="fil4" points="7192,6465 6993,6496 7394,6487 "/>
   <polygon class="fil3 str3" points="7192,6465 6993,6496 7394,6487 "/>
   <polygon class="fil4" points="10429,6228 7798,6733 7952,7009 "/>
   <polygon class="fil3 str3" points="10429,6228 7798,6733 7952,7009 "/>
   <polygon class="fil4" points="10429,6228 10542,6704 11381,6610 "/>
   <polygon class="fil3 str3" points="10429,6228 10542,6704 11381,6610 "/>
   <polygon class="fil4" points="11257,6053 10429,6228 11381,6610 "/>
   <polygon class="fil3 str3" points="11257,6053 10429,6228 11381,6610 "/>
   <polygon class="fil4" points="12067,5815 10429,6228 11257,6053 "/>
   <polygon class="fil3 str3" points="12067,5815 10429,6228 11257,6053 "/>
   <polygon class="fil4" points="12067,5815 7798,6733 10429,6228 "/>
   <polygon class="fil3 str3" points="12067,5815 7798,6733 10429,6228 "/>
   <polygon class="fil4" points="10830,5077 7798,6733 12067,5815 "/>
   <polygon class="fil3 str3" points="10830,5077 7798,6733 12067,5815 "/>
   <polygon class="fil4" points="9762,5033 7798,6733 10830,5077 "/>
   <polygon class="fil3 str3" points="9762,5033 7798,6733 10830,5077 "/>
   <polygon class="fil4" points="9416,4688 9762,5033 10830,5077 "/>
   <polygon class="fil3 str3" points="9416,4688 9762,5033 10830,5077 "/>
   <polygon class="fil4" points="11554,4644 10830,5077 12067,5815 "/>
   <polygon class="fil3 str3" points="11554,4644 10830,5077 12067,5815 "/>
   <polygon class="fil4" points="10506,4609 9416,4688 10830,5077 "/>
   <polygon class="fil3 str3" points="10506,4609 9416,4688 10830,5077 "/>
   <polygon class="fil4" points="9025,4396 7394,6487 7628,6587 "/>
   <polygon class="fil3 str3" points="9025,4396 7394,6487 7628,6587 "/>
   <polygon class="fil4" points="9025,4396 9416,4688 10506,4609 "/>
   <polygon class="fil4" points="10120,4189 9025,4396 10506,4609 "/>
   <polygon class="fil3 str3" points="10120,4189 9025,4396 10506,4609 "/>
   <polygon class="fil4" points="10703,3578 9025,4396 10120,4189 "/>
   <polygon class="fil3 str3" points="10703,3578 9025,4396 10120,4189 "/>
   <polygon class="fil4" points="9263,3557 9025,4396 10703,3578 "/>
   <polygon class="fil3 str3" points="9263,3557 9025,4396 10703,3578 "/>
   <polygon class="fil4" points="9263,3557 7394,6487 9025,4396 "/>
   <polygon class="fil3 str3" points="9263,3557 7394,6487 9025,4396 "/>
   <polygon class="fil4" points="8747,3313 7394,6487 9263,3557 "/>
   <polygon class="fil4" points="8204,3142 7394,6487 8747,3313 "/>
   <polygon class="fil3 str3" points="8204,3142 7394,6487 8747,3313 "/>
   <polygon class="fil4" points="9673,2820 9263,3557 10703,3578 "/>
   <polygon class="fil3 str3" points="9673,2820 9263,3557 10703,3578 "/>
   <line class="fil3 str2" x1="5044" y1="3622" x2="4156" y2= "4332" />
   <line class="fil3 str2" x1="6483" y1="7520" x2="4057" y2= "8447" />
   <line class="fil3 str2" x1="6593" y1="7716" x2="5667" y2= "8427" />
   <line class="fil3 str2" x1="6832" y1="7923" x2="5568" y2= "10193" />
   <line class="fil3 str2" x1="7042" y1="8003" x2="6479" y2= "10539" />
   <line class="fil3 str2" x1="7357" y1="8007" x2="7848" y2= "10558" />
   <line class="fil3 str2" x1="7570" y1="7933" x2="8768" y2= "10238" />
   <line class="fil3 str2" x1="7814" y1="7734" x2="9829" y2= "9373" />
   <line class="fil3 str2" x1="7929" y1="7541" x2="10328" y2= "8536" />
   <line class="fil3 str2" x1="7988" y1="7231" x2="10585" y2= "7190" />
   <line class="fil3 str2" x1="7952" y1="7009" x2="10429" y2= "6228" />
   <line class="fil3 str2" x1="7798" y1="6733" x2="9762" y2= "5033" />
   <line class="fil3 str2" x1="7628" y1="6587" x2="9025" y2= "4396" />
   <polyline class="fil3 str2" points="9762,5033 9416,4688 9025,4396 "/>
   <polyline class="fil3 str2" points="10585,7190 10542,6704 10429,6228 "/>
   <polyline class="fil3 str2" points="9829,9373 10110,8972 10328,8536 "/>
   <polyline class="fil3 str2" points="7848,10558 8320,10431 8768,10238 "/>
   <polyline class="fil3 str2" points="5568,10193 6011,10399 6479,10539 "/>
   <polyline class="fil3 str2" points="4057,8447 4263,8890 4532,9298 "/>
   <line class="fil3 str2" x1="6832" y1="7923" x2="7042" y2= "8003" />
   <line class="fil3 str2" x1="4521" y1="2748" x2="4612" y2= "2899" />
   <line class="fil3 str2" x1="6083" y1="3408" x2="6020" y2= "3194" />
   <line class="fil3 str2" x1="4317" y1="4485" x2="4156" y2= "4331" />
   <line class="fil3 str2" x1="2635" y1="4695" x2="2788" y2= "4780" />
   <line class="fil3 str2" x1="3326" y1="6302" x2="3110" y2= "6249" />
   <line class="fil3 str2" x1="2494" y1="7316" x2="6433" y2= "7255" />
   <line class="fil3 str2" x1="3163" y1="8433" x2="2353" y2= "8670" />
   <line class="fil3 str2" x1="2866" y1="9842" x2="3590" y2= "9410" />
   <line class="fil3 str2" x1="2353" y1="8670" x2="2866" y2= "9842" />
   <line class="fil3 str2" x1="4300" y1="10298" x2="3718" y2= "10908" />
   <line class="fil3 str2" x1="4748" y1="11666" x2="5158" y2= "10929" />
   <line class="fil3 str2" x1="3718" y1="10908" x2="4748" y2= "11666" />
   <line class="fil3 str2" x1="6216" y1="11344" x2="6018" y2= "12164" />
   <line class="fil3 str2" x1="7289" y1="12305" x2="7275" y2= "11462" />
   <line class="fil3 str2" x1="6018" y1="12164" x2="7289" y2= "12305" />
   <line class="fil3 str2" x1="8400" y1="11291" x2="8637" y2= "12101" />
   <line class="fil3 str2" x1="9809" y1="11588" x2="9376" y2= "10864" />
   <line class="fil3 str2" x1="8637" y1="12101" x2="9809" y2= "11588" />
   <line class="fil3 str2" x1="10264" y1="10154" x2="10875" y2= "10736" />
   <line class="fil3 str2" x1="11632" y1="9706" x2="10896" y2= "9296" />
   <line class="fil3 str2" x1="10875" y1="10736" x2="11632" y2= "9706" />
   <line class="fil3 str2" x1="11310" y1="8237" x2="12130" y2= "8435" />
   <polygon class="fil5" points="2811,6909 2442,6895 2446,6814 2814,6828 "/>
   <polygon id="1" class="fil5" points="2822,6726 2522,6690 2529,6642 2760,6427 2561,6402 2570,6340 2869,6376 2863,6424 2628,6639 2830,6664 "/>
   <path id="2" class="fil5" d="M2685 6037l-44 191 62 13 42 -181c7,-28 16,-47 28,-54 12,-8 31,-10 59,-4l40 8c27,6 44,15 52,27 7,12 8,32 1,60l-41 181c-7,28 -16,47 -29,55 -12,8 -31,9 -58,4l-9 -2 2 -63 35 8 48 -205 -68 -14 -41 180c-7,28 -16,47 -29,55 -12,8 -31,9 -58,3l-33 -6c-27,-6 -44,-15 -51,-27 -8,-12 -8,-32 -2,-61l38 -164c7,-28 16,-47 28,-55 12,-9 29,-10 53,-6l7 2 0 62 -32 -7z"/>
   <polygon id="3" class="fil5" points="2768,5746 3004,5815 2982,5881 2746,5812 2702,5943 2651,5928 2759,5599 2811,5614 "/>
   <polygon id="4" class="fil5" points="3061,5652 2776,5557 2801,5492 3085,5586 "/>
   <polygon id="5" class="fil5" points="2947,5280 3176,5369 3148,5434 2919,5345 2864,5472 2814,5453 2952,5134 3002,5153 "/>
   <path id="6" class="fil5" d="M3007 5031l218 106 97 -176 -218 -106 34 -63 205 100c24,12 38,25 42,39 4,13 -1,33 -15,59l-92 168c-14,25 -28,41 -42,45 -14,5 -33,1 -58,-11l-204 -100 33 -61z"/>
   <polygon id="7" class="fil5" points="3314,4614 3523,4739 3484,4798 3275,4673 3197,4789 3151,4761 3346,4470 3392,4498 "/>
   <path id="8" class="fil5" d="M3611 4526l148 -183 -150 -108 -148 184 150 107zm-181 -43c-22,-16 -34,-31 -36,-45 -1,-14 7,-32 26,-55l142 -176c19,-23 36,-36 50,-38 14,-2 32,5 54,20l127 91c22,16 34,31 35,45 1,14 -7,32 -26,55l-142 176c-19,23 -35,36 -49,38 -15,2 -33,-5 -55,-20l-126 -91z"/>
   <path id="9" class="fil5" d="M7401 2662l243 9 8 -178 -244 -9 -7 178zm-67 -166c1,-26 7,-44 18,-53 11,-9 32,-13 63,-12l234 10c31,1 52,6 62,16 10,10 15,28 14,54l-7 150c-1,26 -7,44 -18,53 -12,9 -32,13 -63,11l-234 -9c-31,-1 -51,-6 -62,-16 -10,-10 -15,-28 -13,-54l6 -150z"/>
   <polygon id="10" class="fil5" points="4081,3672 4287,3882 4224,3937 4018,3727 3894,3834 3850,3789 4161,3518 4206,3563 "/>
   <polygon id="11" class="fil5" points="4417,3761 4232,3535 4489,3348 4521,3387 4323,3532 4364,3581 4479,3497 4511,3536 4396,3620 4441,3675 4642,3529 4676,3571 "/>
   <path id="12" class="fil5" d="M4784 3218l-164 107 108 146 163 -106 -36 -50 70 -28 20 27c15,22 21,39 18,53 -3,14 -17,29 -43,45l-155 102c-25,16 -45,23 -59,21 -15,-2 -30,-13 -46,-35l-91 -124c-16,-21 -22,-39 -19,-52 4,-14 18,-29 43,-45l155 -101c26,-17 46,-24 60,-22 15,2 30,13 46,34l16 23 -55 48 -31 -43z"/>
   <polygon id="13" class="fil5" points="5002,3360 4858,3110 4902,3087 5223,3137 5127,2971 5185,2941 5330,3191 5285,3214 4963,3161 5061,3329 "/>
   <path id="14" class="fil5" d="M5395 3099l221 -95 -79 -163 -221 96 79 162zm-140 -120c-11,-23 -14,-41 -8,-54 5,-13 22,-25 50,-38l212 -91c29,-13 50,-17 63,-12 14,4 27,18 38,42l67 137c12,23 15,42 9,55 -6,12 -23,25 -50,37l-213 92c-28,12 -49,16 -63,11 -13,-4 -26,-18 -38,-41l-67 -138z"/>
   <polygon id="15" class="fil5" points="5723,3019 5621,2750 5691,2727 5774,2945 5996,2870 6015,2920 "/>
   <path id="16" class="fil5" d="M6089 2846l235 -58 -47 -172 -235 58 47 172zm-115 -140c-7,-25 -6,-44 1,-55 8,-12 27,-21 57,-29l226 -55c30,-8 52,-8 65,-2 12,7 22,23 29,48l40 145c8,25 7,44 -1,55 -8,12 -27,22 -57,29l-225 56c-30,7 -52,8 -65,1 -12,-7 -22,-23 -30,-48l-40 -145zm112 -136l38 -127 75 -19 -69 136 -44 10z"/>
   <path id="17" class="fil5" d="M6682 2533l-226 40 35 175 226 -40 -12 -60 -118 21 -10 -50 189 -33 19 96c5,26 4,45 -5,56 -9,11 -28,19 -58,24l-215 39c-30,5 -52,4 -64,-4 -13,-7 -21,-23 -27,-49l-29 -148c-5,-25 -3,-44 5,-55 9,-11 28,-19 58,-25l216 -38c30,-5 51,-4 63,3 13,7 21,23 26,47l2 7 -69 24 -6 -30z"/>
   <polygon id="18" class="fil5" points="6836,2751 6796,2469 6869,2459 6909,2742 "/>
   <path id="19" class="fil5" d="M7189 2491l-199 12 12 177 199 -12 -4 -60 75 10 2 33c2,26 -3,44 -13,54 -10,11 -30,17 -61,18l-189 12c-30,2 -51,-2 -63,-11 -11,-9 -18,-26 -20,-52l-10 -150c-2,-26 2,-44 13,-54 10,-10 30,-16 61,-17l188 -12c31,-2 53,2 64,11 11,8 18,26 20,51l2 28 -74 15 -3 -53z"/>
   <path class="fil6" d="M3538 6539l-38 193 57 13 36 -184c6,-28 14,-47 25,-55 11,-8 29,-9 53,-3l37 8c24,6 40,14 47,27 7,12 7,32 2,61l-36 182c-6,28 -14,47 -25,55 -11,8 -28,9 -53,3l-7 -1 1 -63 31 7 41 -208 -61 -14 -36 184c-6,28 -14,46 -25,54 -11,8 -28,9 -53,4l-29 -7c-25,-6 -41,-15 -48,-27 -6,-12 -7,-32 -2,-60l33 -167c6,-28 14,-46 24,-54 11,-9 27,-10 49,-5l6 1 1 63 -30 -7z"/>
   <path id="1" class="fil6" d="M3576 6368l175 57 46 -164 -174 -58 16 -57 164 54c19,6 31,15 36,26 5,11 4,29 -3,53l-44 156c-7,24 -15,39 -25,45 -9,6 -23,5 -43,-1l-164 -54 16 -57z"/>
   <path id="2" class="fil6" d="M3864 6191l-208 -92 77 -205c7,-19 15,-32 24,-37 10,-6 21,-5 36,1l46 20c14,7 23,15 26,26 3,12 1,27 -6,45l-56 152 81 35 -20 55zm-105 -258l-47 128 55 24 48 -128c3,-9 5,-16 3,-21 -1,-5 -5,-9 -11,-11l-21 -10c-7,-3 -11,-3 -15,0 -4,2 -8,8 -12,18z"/>
   <polygon id="3" class="fil6" points="3967,5923 3768,5812 3878,5577 3913,5596 3828,5778 3872,5802 3921,5697 3955,5716 3906,5821 3955,5848 4041,5664 4079,5685 "/>
   <path id="4" class="fil6" d="M4030 5388l-66 116 52 36 67 -117c5,-8 7,-15 7,-20 -1,-5 -4,-9 -10,-13l-21 -15c-6,-4 -11,-5 -15,-3 -4,2 -9,7 -14,16zm62 273l-190 -129 108 -188c10,-17 20,-28 30,-32 10,-3 22,-1 35,8l44 30c13,9 20,19 21,31 2,12 -2,26 -12,43l-17 29 129 -50 -42 73 -122 38 -27 48 72 49 -29 50z"/>
   <polygon id="5" class="fil6" points="4255,5372 4076,5225 4109,5177 4287,5324 "/>
   <path id="6" class="fil6" d="M4310 5220l114 -155 -109 -96 -114 155 109 96zm-135 -42c-16,-14 -24,-27 -25,-39 0,-12 7,-27 21,-47l110 -148c15,-20 27,-31 38,-32 11,-2 24,4 40,18l92 82c16,14 24,27 25,39 1,12 -6,27 -21,47l-110 149c-14,19 -27,30 -38,31 -10,2 -24,-4 -40,-18l-92 -82z"/>
   <path id="7" class="fil6" d="M4497 4741l-88 99 45 47 88 -99c6,-7 10,-14 10,-19 1,-5 -1,-9 -6,-14l-18 -20c-5,-5 -10,-7 -14,-6 -5,0 -10,4 -17,12zm8 283l-161 -171 142 -160c13,-14 24,-22 35,-24 11,-1 21,4 32,16l38 40c11,11 16,23 15,35 -1,11 -7,24 -20,39l-22 24 135 -19 -54 62 -127 10 -36 41 61 64 -38 43z"/>
   <path id="8" class="fil6" d="M4893 4555l55 -47c30,-26 48,-49 53,-69 6,-20 0,-42 -16,-65 -14,-20 -30,-30 -47,-31 -17,-1 -36,7 -57,25l-76 65 88 122zm-18 74l-138 -193 119 -102c34,-30 67,-44 97,-43 30,1 56,17 78,47 23,33 31,66 23,98 -8,33 -32,67 -71,100l-108 93z"/>
   <polygon id="9" class="fil6" points="5107,4428 4986,4222 5189,4078 5210,4114 5054,4226 5080,4270 5171,4205 5192,4241 5101,4306 5131,4356 5290,4243 5312,4282 "/>
   <polygon id="10" class="fil6" points="5548,4139 5433,3867 5491,3838 5584,4058 5771,3962 5793,4013 "/>
   <path id="11" class="fil6" d="M5838 3948l169 -72 -50 -143 -169 71 50 144zm-97 -110c-7,-21 -8,-36 -4,-47 5,-11 18,-21 40,-30l162 -68c22,-10 38,-12 48,-8 10,5 18,17 25,38l42 121c8,21 9,37 4,48 -5,11 -18,21 -39,30l-162 68c-22,10 -38,12 -48,7 -10,-4 -18,-17 -26,-38l-42 -121z"/>
   <path id="12" class="fil6" d="M6231 3648l-121 35 16 66 121 -36c9,-3 15,-6 18,-10 2,-4 3,-10 1,-16l-6 -28c-2,-6 -5,-11 -9,-13 -4,-2 -11,-1 -20,2zm-126 247l-57 -237 196 -58c17,-6 31,-6 41,-1 10,5 17,16 21,32l13 55c4,16 3,29 -4,39 -6,9 -18,17 -36,22l-30 9 125 59 -76 23 -112 -63 -50 15 22 89 -53 16z"/>
   <polygon id="13" class="fil6" points="6439,3811 6401,3569 6638,3523 6645,3565 6462,3601 6470,3654 6577,3633 6583,3675 6477,3696 6486,3755 6672,3719 6679,3764 "/>
   <polygon id="14" class="fil6" points="6832,3547 6841,3749 6786,3752 6777,3551 6669,3557 6667,3513 6939,3497 6941,3541 "/>
   <path id="15" class="fil6" d="M7029 3686l181 -1 0 -153 -181 1 0 153zm-54 -140c0,-22 4,-38 12,-46 8,-8 23,-12 46,-12l174 -1c23,0 38,4 46,12 8,8 12,23 12,46l-1 129c0,23 -4,38 -12,46 -8,8 -23,13 -46,13l-174 0c-23,0 -38,-4 -46,-12 -8,-8 -12,-23 -12,-46l1 -129z"/>
   <path id="16" class="fil7 str1" d="M3538 6539l-38 193 57 13 36 -184c6,-28 14,-47 25,-55 11,-8 29,-9 53,-3l37 8c24,6 40,14 47,27 7,12 7,32 2,61l-36 182c-6,28 -14,47 -25,55 -11,8 -28,9 -53,3l-7 -1 1 -63 31 7 41 -208 -61 -14 -36 184c-6,28 -14,46 -25,54 -11,8 -28,9 -53,4l-29 -7c-25,-6 -41,-15 -48,-27 -6,-12 -7,-32 -2,-60l33 -167c6,-28 14,-46 24,-54 11,-9 27,-10 49,-5l6 1 1 63 -30 -7z"/>
   <path id="17" class="fil7 str1" d="M3576 6368l175 57 46 -164 -174 -58 16 -57 164 54c19,6 31,15 36,26 5,11 4,29 -3,53l-44 156c-7,24 -15,39 -25,45 -9,6 -23,5 -43,-1l-164 -54 16 -57z"/>
   <path id="18" class="fil7 str1" d="M3864 6191l-208 -92 77 -205c7,-19 15,-32 24,-37 10,-6 21,-5 36,1l46 20c14,7 23,15 26,26 3,12 1,27 -6,45l-56 152 81 35 -20 55zm-105 -258l-47 128 55 24 48 -128c3,-9 5,-16 3,-21 -1,-5 -5,-9 -11,-11l-21 -10c-7,-3 -11,-3 -15,0 -4,2 -8,8 -12,18z"/>
   <polygon id="19" class="fil7 str1" points="3967,5923 3768,5812 3878,5577 3913,5596 3828,5778 3872,5802 3921,5697 3955,5716 3906,5821 3955,5848 4041,5664 4079,5685 "/>
   <path id="20" class="fil7 str1" d="M4030 5388l-66 116 52 36 67 -117c5,-8 7,-15 7,-20 -1,-5 -4,-9 -10,-13l-21 -15c-6,-4 -11,-5 -15,-3 -4,2 -9,7 -14,16zm62 273l-190 -129 108 -188c10,-17 20,-28 30,-32 10,-3 22,-1 35,8l44 30c13,9 20,19 21,31 2,12 -2,26 -12,43l-17 29 129 -50 -42 73 -122 38 -27 48 72 49 -29 50z"/>
   <polygon id="21" class="fil7 str1" points="4255,5372 4076,5225 4109,5177 4287,5324 "/>
   <path id="22" class="fil7 str1" d="M4310 5220l114 -155 -109 -96 -114 155 109 96zm-135 -42c-16,-14 -24,-27 -25,-39 0,-12 7,-27 21,-47l110 -148c15,-20 27,-31 38,-32 11,-2 24,4 40,18l92 82c16,14 24,27 25,39 1,12 -6,27 -21,47l-110 149c-14,19 -27,30 -38,31 -10,2 -24,-4 -40,-18l-92 -82z"/>
   <path id="23" class="fil7 str1" d="M4497 4741l-88 99 45 47 88 -99c6,-7 10,-14 10,-19 1,-5 -1,-9 -6,-14l-18 -20c-5,-5 -10,-7 -14,-6 -5,0 -10,4 -17,12zm8 283l-161 -171 142 -160c13,-14 24,-22 35,-24 11,-1 21,4 32,16l38 40c11,11 16,23 15,35 -1,11 -7,24 -20,39l-22 24 135 -19 -54 62 -127 10 -36 41 61 64 -38 43z"/>
   <path id="24" class="fil7 str1" d="M4893 4555l55 -47c30,-26 48,-49 53,-69 6,-20 0,-42 -16,-65 -14,-20 -30,-30 -47,-31 -17,-1 -36,7 -57,25l-76 65 88 122zm-18 74l-138 -193 119 -102c34,-30 67,-44 97,-43 30,1 56,17 78,47 23,33 31,66 23,98 -8,33 -32,67 -71,100l-108 93z"/>
   <polygon id="25" class="fil7 str1" points="5107,4428 4986,4222 5189,4078 5210,4114 5054,4226 5080,4270 5171,4205 5192,4241 5101,4306 5131,4356 5290,4243 5312,4282 "/>
   <polygon id="26" class="fil7 str1" points="5548,4139 5433,3867 5491,3838 5584,4058 5771,3962 5793,4013 "/>
   <path id="27" class="fil7 str1" d="M5838 3948l169 -72 -50 -143 -169 71 50 144zm-97 -110c-7,-21 -8,-36 -4,-47 5,-11 18,-21 40,-30l162 -68c22,-10 38,-12 48,-8 10,5 18,17 25,38l42 121c8,21 9,37 4,48 -5,11 -18,21 -39,30l-162 68c-22,10 -38,12 -48,7 -10,-4 -18,-17 -26,-38l-42 -121z"/>
   <path id="28" class="fil7 str1" d="M6231 3648l-121 35 16 66 121 -36c9,-3 15,-6 18,-10 2,-4 3,-10 1,-16l-6 -28c-2,-6 -5,-11 -9,-13 -4,-2 -11,-1 -20,2zm-126 247l-57 -237 196 -58c17,-6 31,-6 41,-1 10,5 17,16 21,32l13 55c4,16 3,29 -4,39 -6,9 -18,17 -36,22l-30 9 125 59 -76 23 -112 -63 -50 15 22 89 -53 16z"/>
   <polygon id="29" class="fil7 str1" points="6439,3811 6401,3569 6638,3523 6645,3565 6462,3601 6470,3654 6577,3633 6583,3675 6477,3696 6486,3755 6672,3719 6679,3764 "/>
   <polygon id="30" class="fil7 str1" points="6832,3547 6841,3749 6786,3752 6777,3551 6669,3557 6667,3513 6939,3497 6941,3541 "/>
   <path id="31" class="fil7 str1" d="M7029 3686l181 -1 0 -153 -181 1 0 153zm-54 -140c0,-22 4,-38 12,-46 8,-8 23,-12 46,-12l174 -1c23,0 38,4 46,12 8,8 12,23 12,46l-1 129c0,23 -4,38 -12,46 -8,8 -23,13 -46,13l-174 0c-23,0 -38,-4 -46,-12 -8,-8 -12,-23 -12,-46l1 -129z"/>
   <g>
    <polygon class="fil1" points="6142,4815 5484,5255 5666,5465 5902,5679 6142,5930 6373,6179 7076,5480 7056,5468 7037,5425 6818,5292 6617,5209 6565,5082 6488,4991 6307,4978 6204,4866 "/>
    <polygon id="1" class="fil7 str1" points="6142,4815 5484,5255 5666,5465 5902,5679 6142,5930 6373,6179 7076,5480 7056,5468 7037,5425 6818,5292 6617,5209 6565,5082 6488,4991 6307,4978 6204,4866 "/>
   </g>
   <g>
    <polygon class="fil1" points="6198,7560 6267,7706 6428,7945 6634,8219 7430,8274 7664,7893 7371,7701 6835,7439 6354,7015 6192,7360 6206,7540 "/>
    <polygon id="1" class="fil7 str1" points="6198,7560 6267,7706 6428,7945 6634,8219 7430,8274 7664,7893 7371,7701 6835,7439 6354,7015 6192,7360 6206,7540 "/>
   </g>
   <g>
    <polygon class="fil1" points="5934,7271 5802,7230 5683,7006 5659,6962 5569,6758 5459,6668 5342,6789 5331,6701 5342,6608 5390,6533 5508,6479 6354,7015 6192,7360 6188,7320 6041,7306 "/>
    <polygon id="1" class="fil7 str1" points="5934,7271 5802,7230 5683,7006 5659,6962 5569,6758 5459,6668 5342,6789 5331,6701 5342,6608 5390,6533 5508,6479 6354,7015 6192,7360 6188,7320 6041,7306 "/>
   </g>
   <g>
    <polygon class="fil1" points="7518,6749 6550,6617 6354,7015 6835,7439 7371,7701 "/>
    <polygon id="1" class="fil7 str1" points="7518,6749 6550,6617 6354,7015 6835,7439 7371,7701 "/>
   </g>
   <g>
    <polygon class="fil1" points="5508,6479 5485,6345 5474,6247 5485,6160 5518,6077 5303,5938 5185,6072 5020,6160 4877,6219 4656,6236 4567,6213 4475,6184 4480,5875 5484,5255 5666,5465 5902,5679 6142,5930 6373,6179 6550,6617 6354,7015 "/>
    <polygon id="1" class="fil7 str1" points="5508,6479 5485,6345 5474,6247 5485,6160 5518,6077 5303,5938 5185,6072 5020,6160 4877,6219 4656,6236 4567,6213 4475,6184 4480,5875 5484,5255 5666,5465 5902,5679 6142,5930 6373,6179 6550,6617 6354,7015 "/>
   </g>
   <g>
    <polygon class="fil1" points="9598,10258 9532,10285 9412,10317 9334,10366 9280,10366 9222,10290 9118,10157 8709,10193 8148,9662 8072,9434 7850,9397 8167,8003 8888,5740 8912,5728 9040,5615 9104,5460 9130,5235 9155,5024 9173,4910 9260,4938 9347,4967 9426,5086 9522,5282 9659,5380 9793,5394 9858,5555 9839,5780 9852,5844 9891,5970 9897,6062 9905,6209 9880,6336 9835,6490 9746,6596 9629,6717 9501,6752 9457,6830 9464,6991 9483,7118 9555,7273 9645,7406 9774,7517 9803,7574 9852,7664 9839,7721 9852,7798 9832,7919 9827,8108 9821,8220 9796,8298 9792,8317 9758,8480 9731,8615 9733,8783 9733,8987 9715,9149 9650,9290 9555,9437 9452,9599 9336,9895 9342,9910 9347,9926 9353,9942 9358,9958 9364,9975 9370,9990 9375,10005 9381,10022 9386,10037 9393,10053 9400,10066 9407,10082 9414,10097 9423,10112 9430,10128 9437,10143 9445,10158 9454,10172 9464,10186 9473,10198 9485,10209 9497,10218 9513,10227 9531,10236 9551,10242 9569,10249 "/>
    <polygon id="1" class="fil7 str1" points="9598,10258 9532,10285 9412,10317 9334,10366 9280,10366 9222,10290 9118,10157 8709,10193 8148,9662 8072,9434 7850,9397 8167,8003 8888,5740 8912,5728 9040,5615 9104,5460 9130,5235 9155,5024 9173,4910 9260,4938 9347,4967 9426,5086 9522,5282 9659,5380 9793,5394 9858,5555 9839,5780 9852,5844 9891,5970 9897,6062 9905,6209 9880,6336 9835,6490 9746,6596 9629,6717 9501,6752 9457,6830 9464,6991 9483,7118 9555,7273 9645,7406 9774,7517 9803,7574 9852,7664 9839,7721 9852,7798 9832,7919 9827,8108 9821,8220 9796,8298 9792,8317 9758,8480 9731,8615 9733,8783 9733,8987 9715,9149 9650,9290 9555,9437 9452,9599 9336,9895 9342,9910 9347,9926 9353,9942 9358,9958 9364,9975 9370,9990 9375,10005 9381,10022 9386,10037 9393,10053 9400,10066 9407,10082 9414,10097 9423,10112 9430,10128 9437,10143 9445,10158 9454,10172 9464,10186 9473,10198 9485,10209 9497,10218 9513,10227 9531,10236 9551,10242 9569,10249 "/>
   </g>
   <g>
    <polygon class="fil1" points="7850,9397 8167,8003 7664,7893 7430,8274 6634,8219 6673,8486 6598,8768 6714,8943 6913,9041 7107,9287 7155,9313 7372,9434 7439,9330 "/>
    <polygon id="1" class="fil7 str1" points="7850,9397 8167,8003 7664,7893 7430,8274 6634,8219 6673,8486 6598,8768 6714,8943 6913,9041 7107,9287 7155,9313 7372,9434 7439,9330 "/>
   </g>
   <g>
    <polygon class="fil1" points="7518,6749 6550,6617 6373,6179 7076,5480 7134,5517 7178,5593 7222,5660 7250,5705 7366,5859 7445,6092 7536,6372 7595,6423 "/>
    <polygon id="1" class="fil7 str1" points="7518,6749 6550,6617 6373,6179 7076,5480 7134,5517 7178,5593 7222,5660 7250,5705 7366,5859 7445,6092 7536,6372 7595,6423 "/>
   </g>
   <g>
    <polygon class="fil1" points="7664,7893 7371,7701 7518,6749 7595,6423 7665,6484 7761,6457 7793,6400 7805,6251 7825,6097 7888,6026 7967,6068 8082,6152 8179,6244 8334,6250 8475,6150 8591,6003 8623,6039 8719,5869 8796,5806 8888,5740 8167,8003 "/>
    <polygon id="1" class="fil7 str1" points="7664,7893 7371,7701 7518,6749 7595,6423 7665,6484 7761,6457 7793,6400 7805,6251 7825,6097 7888,6026 7967,6068 8082,6152 8179,6244 8334,6250 8475,6150 8591,6003 8623,6039 8719,5869 8796,5806 8888,5740 8167,8003 "/>
   </g>
   <path class="fil5" d="M2635 2864l-179 183 91 93 179 -183c13,-14 21,-26 22,-35 1,-10 -4,-19 -14,-30l-36 -37c-10,-11 -20,-15 -29,-14 -9,1 -21,9 -34,23zm25 553l-342 -350 293 -300c27,-28 52,-43 75,-44 22,-2 45,9 69,33l76 78c23,24 34,47 32,71 -1,23 -16,48 -43,76l-214 219 133 137 -79 80z"/>
   <path id="1" class="fil5" d="M11616 11444l-184 188 175 180 184 -189 -60 -61 84 -57 33 34c25,26 38,49 37,69 -1,20 -16,45 -45,75l-175 179c-28,29 -52,44 -71,45 -20,0 -42,-12 -68,-38l-148 -152c-26,-26 -38,-49 -37,-69 1,-20 15,-44 44,-73l175 -179c29,-30 53,-45 72,-46 20,-1 42,12 68,38l27 27 -60 82 -51 -53z"/>
   <path id="2" class="fil5" d="M3029 2900l245 -210 -160 -195 -245 210 160 195zm-220 -115c-23,-28 -34,-52 -31,-71 2,-20 19,-43 50,-70l235 -202c31,-27 56,-39 75,-38 20,1 41,15 64,43l135 165c23,28 33,53 31,72 -2,20 -19,43 -50,69l-235 202c-31,27 -56,40 -76,39 -19,-1 -40,-16 -63,-44l-135 -165z"/>
   <path id="3" class="fil5" d="M11096 11904l-231 199 159 195 232 -199 -53 -65 -121 104 -46 -56 193 -166 88 107c23,29 34,53 31,72 -2,20 -19,43 -49,69l-221 190c-31,26 -56,39 -75,38 -20,-1 -41,-16 -64,-44l-135 -164c-23,-29 -33,-52 -31,-72 3,-20 19,-43 50,-69l221 -190c30,-26 55,-39 74,-38 19,1 40,14 61,40l7 9 -61 75 -29 -35z"/>
   <polygon id="4" class="fil5" points="11451,12040 11196,11729 11270,11666 11525,11977 "/>
   <path id="5" class="fil5" d="M3487 2208l-180 129 62 92 181 -130c14,-10 22,-19 24,-26 2,-8 0,-17 -6,-26l-26 -38c-7,-10 -14,-15 -22,-15 -8,-1 -19,4 -33,14zm-70 460l-228 -333 293 -209c27,-19 49,-28 69,-27 18,2 36,14 51,37l53 78c16,22 21,43 16,62 -5,18 -21,37 -48,56l-45 32 241 15 -114 82 -222 -28 -74 53 86 126 -78 56z"/>
   <path id="6" class="fil5" d="M10554 12643l263 -188 -142 -208 -263 188 142 208zm-209 -134c-20,-30 -29,-55 -25,-74 4,-20 22,-41 56,-65l252 -181c33,-23 59,-34 78,-31 19,3 39,20 60,50l119 175c21,30 29,55 25,74 -4,20 -22,41 -55,65l-252 180c-33,24 -59,35 -78,32 -19,-3 -39,-19 -60,-50l-120 -175zm71 -234l-14 -187 83 -59 -20 211 -49 35z"/>
   <path id="7" class="fil5" d="M3991 1793l161 286 239 -141 -161 -286 84 -50 152 269c18,32 24,57 18,76 -6,19 -27,39 -62,60l-227 134c-35,21 -62,29 -81,25 -19,-5 -37,-23 -55,-55l-152 -268 84 -50z"/>
   <polygon id="8" class="fil5" points="4588,1913 4420,1546 4480,1517 4897,1616 4785,1372 4865,1334 5033,1701 4972,1730 4555,1627 4668,1875 "/>
   <polygon id="9" class="fil5" points="10108,12963 9940,12595 10028,12553 10165,12852 10446,12717 10477,12787 "/>
   <path id="10" class="fil5" d="M5054 1692l86 -463 87 -33 360 298 -102 38 -77 -67 -246 91 -17 102 -91 34zm122 -219l171 -64 -144 -126 -27 190z"/>
   <polygon id="11" class="fil5" points="9013,13383 8877,13002 8940,12978 9345,13114 9255,12861 9338,12830 9473,13211 9411,13235 9004,13095 9095,13352 "/>
   <path id="12" class="fil5" d="M9616 13078l301 -112 -85 -238 -300 112 84 238zm-168 -185c-12,-34 -14,-61 -6,-78 9,-18 33,-33 71,-48l288 -107c39,-14 67,-18 84,-10 18,8 33,29 45,64l72 201c12,35 14,61 5,79 -9,17 -32,33 -70,47l-288 107c-39,15 -67,18 -84,10 -18,-7 -33,-29 -46,-64l-71 -201z"/>
   <polygon id="13" class="fil5" points="6084,1382 6000,895 6488,807 6502,890 6125,958 6143,1066 6364,1026 6378,1109 6158,1149 6178,1270 6560,1201 6576,1293 "/>
   <polygon id="14" class="fil5" points="7979,13600 7910,13200 8328,13125 8341,13196 8018,13254 8033,13340 8220,13307 8232,13376 8045,13410 8062,13508 8389,13448 8402,13523 "/>
   <path id="15" class="fil5" d="M6851 1225l124 -11c67,-6 114,-20 139,-43 25,-22 36,-58 32,-106 -4,-41 -18,-71 -42,-90 -24,-18 -59,-25 -106,-21l-169 15 22 256zm-91 85l-34 -404 265 -24c77,-7 137,5 181,36 44,31 68,79 74,144 5,67 -12,120 -52,158 -41,38 -105,60 -192,68l-242 22z"/>
   <polygon id="16" class="fil5" points="7684,13227 7719,13632 7606,13642 7571,13237 7350,13257 7343,13169 7899,13119 7906,13207 "/>
   <path id="17" class="fil5" d="M7515 873l-28 328 275 25 28 -329 98 9 -27 308c-3,37 -12,61 -28,74 -15,12 -44,16 -84,13l-261 -24c-41,-3 -67,-12 -80,-27 -13,-15 -18,-41 -15,-78l27 -308 95 9z"/>
   <path id="18" class="fil5" d="M6603 13537l124 11c67,6 115,0 144,-18 29,-18 45,-50 49,-98 4,-42 -5,-74 -25,-96 -21,-23 -55,-36 -101,-40l-169 -15 -22 256zm-104 67l34 -404 266 24c76,7 134,29 171,68 38,38 55,89 49,154 -6,67 -32,116 -78,146 -46,30 -113,41 -201,34l-241 -22z"/>
   <path id="19" class="fil5" d="M8394 1059l-257 -46 -43 250 257 46 14 -84 93 37 -9 46c-6,37 -17,60 -33,71 -17,11 -45,13 -85,6l-244 -44c-39,-7 -65,-19 -77,-35 -12,-15 -14,-42 -8,-78l36 -211c7,-36 18,-60 34,-70 16,-11 44,-13 84,-6l244 44c40,8 66,19 78,35 11,15 14,41 8,77l-7 39 -98 -3 13 -74z"/>
   <path id="20" class="fil5" d="M5849 13505l300 -357 91 16 167 442 -107 -19 -34 -97 -258 -46 -64 78 -95 -17zm212 -127l179 32 -63 -183 -116 151z"/>
   <path id="21" class="fil5" d="M8487 1412l330 -330 90 25 128 455 -105 -29 -25 -99 -254 -70 -70 73 -94 -25zm223 -108l175 48 -46 -188 -129 140z"/>
   <path id="22" class="fil5" d="M5430 13313l120 33c66,18 115,21 147,9 31,-13 53,-42 65,-89 11,-40 8,-73 -9,-99 -17,-26 -48,-45 -93,-57l-165 -46 -65 249zm-113 47l103 -391 257 70c74,21 127,53 158,98 31,44 38,98 22,160 -18,66 -52,109 -102,131 -51,21 -119,20 -204,-3l-234 -65z"/>
   <path id="23" class="fil5" d="M9495 1380l-245 -91 -85 238 245 91 29 -81 85 53 -16 45c-12,35 -27,56 -45,64 -18,8 -46,4 -85,-10l-232 -87c-38,-14 -62,-29 -70,-47 -9,-18 -8,-44 5,-79l71 -201c12,-35 28,-56 45,-64 18,-7 46,-4 84,10l233 87c38,14 62,30 71,48 9,18 7,44 -5,78l-13 37 -97 -21 25 -70z"/>
   <polygon id="24" class="fil5" points="5068,13262 5204,12881 5294,12915 5158,13296 "/>
   <polygon id="25" class="fil5" points="9538,1750 9706,1382 9793,1423 9626,1791 "/>
   <path id="26" class="fil5" d="M9812 1791l285 148 112 -226 -284 -148 -113 226zm17 -252c17,-33 34,-52 53,-58 18,-5 46,2 82,20l273 143c36,19 58,37 64,56 7,18 2,44 -15,77l-95 191c-16,33 -34,52 -53,58 -18,5 -46,-2 -81,-20l-274 -143c-36,-19 -57,-37 -64,-56 -6,-18 -1,-44 15,-77l95 -191zm235 -44l155 -101 90 47 -192 81 -53 -27z"/>
   <polygon id="27" class="fil5" points="10211,2103 10410,1751 10467,1785 10627,2191 10759,1957 10835,2002 10636,2354 10578,2319 10421,1911 10287,2147 "/>
   <path id="28" class="fil5" d="M4022 12766l402 -231 81 48 9 473 -94 -55 0 -103 -228 -134 -86 51 -84 -49zm242 -45l158 93 2 -194 -160 101z"/>
   <path id="29" class="fil5" d="M11456 2607l-199 -171 -160 195 199 171 54 -66 63 80 -30 36c-23,29 -45,43 -64,44 -20,1 -45,-12 -77,-39l-189 -162c-30,-26 -47,-49 -50,-69 -2,-20 8,-44 32,-73l135 -164c23,-28 44,-43 63,-44 19,-1 44,12 75,39l189 162c32,27 49,51 51,70 3,20 -7,44 -30,72l-25 30 -84 -53 47 -58z"/>
   <path id="30" class="fil5" d="M11463 2964l226 232 176 -180 -226 -231 -176 179zm93 -234c25,-27 47,-39 67,-39 19,1 43,16 72,46l217 222c29,29 44,54 44,74 1,19 -12,42 -37,68l-149 152c-25,26 -48,39 -67,38 -19,-1 -43,-16 -72,-45l-217 -222c-28,-30 -43,-54 -44,-74 -1,-20 12,-43 37,-69l149 -151z"/>
   <polygon id="31" class="fil5" points="11706,3336 12010,3075 12052,3127 12067,3564 12269,3391 12325,3459 12021,3720 11978,3667 11967,3229 11762,3405 "/>
   <path id="32" class="fil5" d="M4084 12360l-254 -169 -168 264 255 169 56 -90 82 83 -31 49c-24,38 -47,59 -70,64 -23,4 -54,-7 -93,-33l-242 -161c-40,-26 -62,-50 -67,-73 -5,-23 4,-54 28,-91l140 -220c24,-38 47,-59 70,-64 22,-4 53,6 93,33l242 160c39,27 61,51 67,74 5,24 -5,54 -28,91l-25 40 -105 -48 50 -78z"/>
   <polygon id="33" class="fil5" points="4575,13075 4730,12701 4820,12740 4694,13044 4980,13168 4951,13238 "/>
   <path id="34" class="fil5" d="M8736 13113l-253 69 65 245 252 -69 -22 -84 99 -6 12 46c9,36 9,62 -2,79 -10,17 -35,31 -74,41l-240 66c-38,11 -66,11 -83,2 -17,-9 -31,-31 -40,-67l-54 -207c-10,-36 -9,-62 1,-79 10,-16 35,-30 74,-41l240 -65c39,-11 67,-12 84,-3 17,10 31,32 40,68l10 37 -90 40 -19 -72z"/>
   <path id="35" class="fil5" d="M11955 11596l-190 -430 53 -78 462 32 -62 91 -100 -9 -150 220 42 93 -55 81zm-23 -251l104 -152 -188 -20 84 172z"/>
  </g>
 </g>
</svg>
